<svg xmlns="http://www.w3.org/2000/svg" width="43.3" height="82.624" viewBox="0 0 43.3 82.624">
  <g id="Group_1010" data-name="Group 1010" transform="translate(-139.382 -53.508)">
    <g id="Group_605" data-name="Group 605" transform="translate(-0.707 2.821)">
      <g id="Group_566" data-name="Group 566" transform="translate(-18362 -2407)">
        <path id="Path_55" data-name="Path 55" d="M95.842,415.668c4.839,0,9.676-.024,14.514.01a6.023,6.023,0,0,1,5.958,4.852,8.621,8.621,0,0,1,.128,1.8c.011,3.408-.257,6.844.078,10.22.348,3.509.3,6.987.319,10.481,0,.984-.375,1.97-.377,2.956q-.038,22.184-.011,44.369a6.765,6.765,0,0,1-2.414,5.609,5.673,5.673,0,0,1-3.642,1.323q-14.6.02-29.194,0c-3.415-.01-5.939-2.8-6-6.539-.027-1.566,0-3.134,0-4.7,0-12.729.06-25.458-.063-38.185-.019-2.032-.272-4.089-.255-6.14,0-.454.248-.9.265-1.362a7.756,7.756,0,0,0-.172-1.4c0-.045-.1-.081-.1-.123a34.434,34.434,0,0,1,.086-5.742,7.7,7.7,0,0,0,.136-3.087,8.2,8.2,0,0,1-.231-2.448c.092-2.241.207-4.488.464-6.715a5.937,5.937,0,0,1,5.834-5.166c4.892-.029,9.786,0,14.672,0Zm19.247,40.6V421.873a4.829,4.829,0,0,0-4.77-4.963c-1.043-.036-2.089,0-3.134-.011a1.226,1.226,0,0,0-1.327,1.082,2.237,2.237,0,0,1-2.571,2q-7.382.009-14.763,0a2.274,2.274,0,0,1-2.62-2.056,1.171,1.171,0,0,0-1.276-1.027c-.935,0-1.87-.01-2.8,0a4.87,4.87,0,0,0-5.127,5.124q-.017,34.185,0,68.37a4.925,4.925,0,0,0,5.3,5.229q13.9.01,27.792,0a4.936,4.936,0,0,0,5.3-5.3Q115.091,473.294,115.089,456.264ZM76.116,421.928h-.057v68.751h.057Zm39.69,40.814h.031V421.626h-.031Zm.045,16.338h-.045v12.078h.037Z" transform="translate(18427.916 2042.52)" fill="#fff" stroke="#fff" stroke-width="1"/>
        <rect id="Rectangle_9" data-name="Rectangle 9" width="41.26" height="79.486" rx="4" transform="translate(18503.109 2459.269)" fill="none" stroke="#fff" stroke-miterlimit="10" stroke-width="2.04"/>
        <path id="Path_56" data-name="Path 56" d="M76.477,492.236a7.766,7.766,0,0,1-.428-.736V488.07l.02-64.105.141-1.205.269-.09.11,1.356-.059,4.137v3.11l-.04,9.64.1,10.861v22.38Z" transform="translate(18427.727 2041.457)" fill="#fff"/>
        <g id="Layer_3" data-name="Layer 3" transform="translate(18507.17 2484.288)">
          <path id="Path_57" data-name="Path 57" d="M100.16,446.435H92.921l-12.87,35.19h6.737l2.871-8.143,1.754-5.027,5.077-14.635,5.123,14.635,1.754,5.027,2.815,8.143h6.837Z" transform="translate(-80.051 -446.435)" fill="#fff"/>
        </g>
        <g id="Layer_4" data-name="Layer 4" transform="translate(18519.32 2507.258)">
          <path id="Path_59" data-name="Path 59" d="M98.708,482.308h-.957a.238.238,0,0,1-.265-.208.206.206,0,0,1,0-.056v-.652a.083.083,0,0,0-.05-.084q-.517-.3-1.032-.6a.078.078,0,0,0-.092,0c-.185.109-.372.215-.557.319a.237.237,0,0,1-.334-.036.221.221,0,0,1-.037-.066l-.957-1.657a.235.235,0,0,1,.041-.331.271.271,0,0,1,.056-.033c.186-.107.372-.215.558-.319a.084.084,0,0,0,.048-.086v-1.189a.083.083,0,0,0-.049-.084c-.188-.107-.377-.215-.563-.319a.233.233,0,0,1-.126-.3.241.241,0,0,1,.03-.052l.957-1.668a.236.236,0,0,1,.307-.132.287.287,0,0,1,.057.032c.188.109.376.215.562.319a.078.078,0,0,0,.092,0q.515-.3,1.032-.6a.082.082,0,0,0,.048-.084v-.659a.234.234,0,0,1,.212-.254.231.231,0,0,1,.042,0h1.949a.235.235,0,0,1,.254.214.172.172,0,0,1,0,.042v.665a.077.077,0,0,0,.043.076c.348.2.7.4,1.044.6a.092.092,0,0,0,.079,0c.194-.108.387-.221.58-.333a.23.23,0,0,1,.32.055.192.192,0,0,1,.021.036q.491.846.98,1.695a.229.229,0,0,1-.059.317.282.282,0,0,1-.035.02c-.189.106-.378.215-.569.328a.088.088,0,0,0-.054.089V478.5a.083.083,0,0,0,.05.084l.569.329a.231.231,0,0,1,.115.305.193.193,0,0,1-.023.041l-.966,1.682a.235.235,0,0,1-.308.123.228.228,0,0,1-.048-.027l-.568-.328a.077.077,0,0,0-.092,0q-.515.3-1.032.6a.082.082,0,0,0-.048.084v.659a.233.233,0,0,1-.211.255.237.237,0,0,1-.042,0Zm-3.785-5.7.545.319a.235.235,0,0,1,.126.214v1.546a.234.234,0,0,1-.118.212l-.159.092-.393.228.766,1.327c.182-.105.357-.2.531-.306a.247.247,0,0,1,.276,0l1.33.769a.23.23,0,0,1,.121.21v.638h1.531v-.618a.235.235,0,0,1,.126-.221c.44-.255.881-.507,1.319-.764a.264.264,0,0,1,.294,0c.151.091.3.177.457.265l.064.034.764-1.326-.544-.319a.227.227,0,0,1-.126-.207v-1.558a.224.224,0,0,1,.111-.2c.056-.036.114-.067.171-.1l.388-.225-.765-1.327c-.182.105-.357.2-.531.306a.252.252,0,0,1-.277,0c-.441-.259-.887-.514-1.329-.77a.227.227,0,0,1-.12-.21v-.625H97.947v.612a.244.244,0,0,1-.131.231c-.435.252-.873.5-1.308.758a.265.265,0,0,1-.3,0c-.152-.091-.3-.177-.458-.265l-.064-.033Z" transform="translate(-94.375 -473.511)" fill="#fff"/>
          <path id="Path_60" data-name="Path 60" d="M99.112,476.22a2.1,2.1,0,1,1-2.1,2.1,2.1,2.1,0,0,1,2.1-2.1Zm0,3.741a1.638,1.638,0,1,0-1.638-1.637v.03a1.642,1.642,0,0,0,1.634,1.608Z" transform="translate(-94.774 -473.922)" fill="#fff"/>
        </g>
      </g>
    </g>
  </g>
</svg>
